<svg width="48" height="48" viewBox="0 0 48 48" fill="none" xmlns="http://www.w3.org/2000/svg">
<path fill-rule="evenodd" clip-rule="evenodd" d="M34.3761 32.2522H42.857C43.7365 32.254 44.4487 32.9663 44.4487 33.8457V38.632C44.4487 39.5115 43.7365 40.2256 42.857 40.2275H38.7491L37.3528 42.3322L35.9566 40.2275H34.3762C33.4967 40.2256 32.7845 39.5115 32.7826 38.632V33.8457C32.7845 32.9663 33.4967 32.2522 34.3761 32.2522ZM24.1817 41.2425C24.8187 41.2293 25.328 40.7088 25.328 40.0699C25.328 39.4328 24.8187 38.9123 24.1817 38.8991H19.8538C20.2278 39.6452 20.1883 40.5321 19.7467 41.2425H24.1817ZM11.0949 36.7907C11.0066 36.7023 10.9559 36.584 10.954 36.4599C10.954 36.3359 11.001 36.2156 11.0893 36.1273C11.2716 35.9413 11.5685 35.9394 11.7527 36.1198L16.7419 41.0056H16.7438C17.0144 41.2706 17.3808 41.4153 17.7604 41.4059C17.9446 41.404 18.125 41.3664 18.2941 41.295C18.3129 41.2856 18.3336 41.2781 18.3543 41.2687C18.5084 41.1954 18.6474 41.0977 18.7658 40.9774L18.7696 40.9736V40.9718C19.0346 40.7012 19.1811 40.3347 19.1755 39.9551C19.168 39.5736 19.012 39.2109 18.7395 38.9422L13.4438 33.7389C13.0849 33.3687 12.5869 33.1639 12.0701 33.1789H6.9813V40.7803H7.93032C8.3118 40.7766 8.68951 40.8499 9.04469 40.9946C9.3961 41.143 9.71555 41.3591 9.98427 41.6297L12.3051 43.9524C12.4855 44.1366 12.6997 44.2832 12.9365 44.3846C13.1751 44.4805 13.4326 44.5293 13.69 44.5256H30.7456C31.3827 44.5124 31.8938 43.9919 31.8938 43.3548C31.8938 42.7178 31.3827 42.1973 30.7456 42.1841H18.6042C18.3374 42.2874 18.0555 42.3419 17.7699 42.3457C17.1422 42.357 16.5371 42.1183 16.0861 41.6805C14.4211 40.0512 12.758 38.4218 11.0949 36.7907ZM6.03788 41.8756V32.2315C6.03976 32.2052 6.02849 32.1789 6.00969 32.1601C5.98902 32.1413 5.96459 32.1319 5.93641 32.13H3.37694C3.34875 32.13 3.32244 32.1413 3.30365 32.162H3.30177C3.2811 32.1808 3.27171 32.2071 3.27171 32.2353V41.8755C3.27171 41.9019 3.28298 41.9282 3.30177 41.947H3.30365C3.32244 41.9676 3.34875 41.977 3.37694 41.977H5.93828H5.9364C5.96459 41.977 5.9909 41.9657 6.00969 41.947C6.02848 41.9282 6.03976 41.9019 6.03788 41.8756ZM28.0885 11.9176C30.1462 12.6937 31.8356 14.2121 32.826 16.174C33.8163 18.1359 34.0343 20.3984 33.4386 22.5146L34.5229 24.1476L36.2273 21.5825C36.31 21.4359 36.4641 21.3457 36.6313 21.3439H42.8569C43.9281 21.3401 44.7962 20.4738 44.8 19.4026V12.1509C44.7963 11.0797 43.9281 10.2134 42.8569 10.2096H30.0165C29.0356 10.2134 28.2106 10.9463 28.0922 11.9179L28.0885 11.9176ZM26.8238 34.393H23.1856C23.4017 35.2217 24.1497 35.8005 25.0047 35.8005C25.8616 35.8005 26.6095 35.2217 26.8238 34.393ZM30.1424 29.9374H19.869C19.5646 29.9468 19.3241 30.1949 19.3241 30.4974C19.3241 30.8019 19.5646 31.0499 19.869 31.0593H30.1424C30.445 31.0499 30.6855 30.8019 30.6855 30.4974C30.6855 30.1949 30.445 29.9468 30.1424 29.9374ZM28.5395 32.0027H21.4701V32.5984V32.5965C21.4738 33.0682 21.8553 33.4515 22.327 33.4534H27.6866C28.1564 33.4496 28.5379 33.0682 28.5398 32.5965L28.5395 32.0027ZM25.9499 28.9978V22.9165H24.0632V28.9978H25.9499ZM22.387 18.1885H27.6225C27.8838 18.1885 28.0942 18.399 28.0942 18.6602V22.4468C28.0942 22.7061 27.8838 22.9166 27.6225 22.9166H26.8916V28.9979H28.5396V28.7611C28.5302 27.814 28.9756 26.9176 29.7367 26.3538C31.4881 25.0253 32.5987 23.0201 32.7979 20.8311C32.9971 18.6421 32.2661 16.4695 30.7834 14.846C29.3007 13.2226 27.2035 12.2978 25.0047 12.2978C22.8061 12.2978 20.7107 13.2224 19.228 14.846C17.7453 16.4697 17.0142 18.642 17.2135 20.8311C17.4127 23.0204 18.5233 25.0255 20.2728 26.3538C21.0358 26.9176 21.4811 27.814 21.4699 28.7611V28.996H23.1198L23.1217 22.9166H22.387C22.1276 22.9166 21.9172 22.7062 21.9172 22.4468V18.6602C21.9172 18.4009 22.1277 18.1904 22.387 18.1885ZM34.551 13.6916C34.4251 13.6953 34.3011 13.6484 34.209 13.56C34.1169 13.4717 34.0662 13.3496 34.0662 13.2218C34.0662 13.094 34.1169 12.9718 34.209 12.8835C34.3011 12.7933 34.4251 12.7463 34.551 12.7501H41.8985C42.0263 12.7463 42.1503 12.7933 42.2405 12.8835C42.3326 12.9718 42.3852 13.094 42.3852 13.2218C42.3852 13.3496 42.3326 13.4717 42.2405 13.56C42.1503 13.6483 42.0263 13.6953 41.8985 13.6916H34.551ZM36.9056 17.3015C36.7778 17.3053 36.6557 17.2583 36.5636 17.1681C36.4715 17.0798 36.4189 16.9576 36.4189 16.8298C36.4189 16.7021 36.4715 16.5799 36.5636 16.4916C36.6557 16.4033 36.7778 16.3563 36.9056 16.36H41.8987C42.0265 16.3563 42.1505 16.4033 42.2407 16.4916C42.3328 16.5799 42.3854 16.7021 42.3854 16.8298C42.3854 16.9576 42.3328 17.0798 42.2407 17.1681C42.1505 17.2583 42.0265 17.3053 41.8987 17.3015H36.9056ZM27.1528 19.7238C27.1471 19.6731 27.1434 19.628 27.1415 19.5848C27.1359 19.5152 27.134 19.4532 27.134 19.4006V19.1319H22.8588V21.977H27.1528L27.1528 19.7238ZM4.7866 3.6001H15.3438C16.4375 3.60198 17.3245 4.48898 17.3264 5.58266V11.5437C17.3245 12.6392 16.4375 13.5244 15.3438 13.5262H10.2285L8.49026 16.1458L6.75199 13.5262H4.78636C3.69268 13.5243 2.8038 12.6392 2.80005 11.5437V5.58266C2.80381 4.48898 3.69293 3.60197 4.7866 3.6001ZM6.24484 10.0513C5.98551 10.0513 5.77504 9.84085 5.77504 9.57964C5.77504 9.32031 5.98551 9.10984 6.24484 9.10984H13.8858C14.1451 9.10984 14.3574 9.32031 14.3574 9.57964C14.3574 9.84085 14.1451 10.0513 13.8858 10.0513H6.24484ZM6.24484 7.49186V7.48998C5.98551 7.48998 5.77504 7.27951 5.77504 7.02018C5.77504 6.75897 5.98551 6.5485 6.24484 6.5485H13.8858C14.1451 6.5485 14.3574 6.75897 14.3574 7.02018C14.3574 7.27951 14.1451 7.48998 13.8858 7.48998L6.24484 7.49186ZM4.29422 20.6199H12.2377C13.0608 20.6218 13.7261 21.287 13.728 22.1102V26.5939C13.7261 27.417 13.0609 28.0842 12.2377 28.0879H8.38914L7.08119 30.0554L5.77324 28.0898H4.29432C3.46937 28.086 2.80409 27.4189 2.80034 26.5939V22.112C2.8041 21.2871 3.4711 20.6199 4.29422 20.6199ZM5.55705 25.957H5.55517C5.30148 25.9476 5.1004 25.739 5.1004 25.4853C5.1004 25.2316 5.30148 25.023 5.55517 25.0155H10.975C11.1027 25.0099 11.2249 25.0587 11.317 25.1471C11.4091 25.2354 11.4617 25.3575 11.4617 25.4853C11.4617 25.6131 11.4091 25.7352 11.317 25.8236C11.2249 25.9119 11.1028 25.9607 10.975 25.957L5.55705 25.957ZM5.55705 23.7226L5.55517 23.7207C5.29584 23.7207 5.08537 23.5103 5.08537 23.2491C5.08537 22.9897 5.29584 22.7793 5.55517 22.7793H10.975C11.2343 22.7793 11.4448 22.9897 11.4448 23.2491C11.4448 23.5103 11.2343 23.7207 10.975 23.7207L5.55705 23.7226ZM35.9062 37.9389C35.6469 37.9389 35.4364 37.7265 35.4364 37.4672C35.4364 37.2079 35.6469 36.9955 35.9062 36.9955H41.326C41.5853 36.9955 41.7958 37.2079 41.7958 37.4672C41.7958 37.7265 41.5853 37.9389 41.326 37.9389H35.9062ZM35.9062 35.7496V35.7477C35.7784 35.7534 35.6563 35.7045 35.5642 35.6162C35.4721 35.5279 35.4195 35.4057 35.4195 35.2779C35.4195 35.1502 35.4721 35.028 35.5642 34.9397C35.6563 34.8514 35.7784 34.8025 35.9062 34.8063H41.326C41.4538 34.8025 41.5759 34.8514 41.668 34.9397C41.7601 35.028 41.8127 35.1502 41.8127 35.2779C41.8127 35.4057 41.7601 35.5279 41.668 35.6162C41.5759 35.7045 41.4538 35.7534 41.326 35.7477L35.9062 35.7496Z" fill="#006837"/>
</svg>
