<svg width="115" height="38" viewBox="0 0 115 38" fill="none" xmlns="http://www.w3.org/2000/svg">
<path d="M47.7994 11.9153V14.6452H49.2284V13.2195H51.9537V13.6105C51.9537 14.245 51.8539 14.7915 51.6556 15.2505C51.4567 15.7096 51.1817 16.086 50.8295 16.3805C50.4779 16.6756 50.0746 16.8905 49.6207 17.0265C49.1669 17.1625 48.673 17.2305 48.1395 17.2305C47.2884 17.2305 46.5389 17.0435 45.8923 16.6695C45.2456 16.2955 44.7371 15.7521 44.3684 15.038C43.9992 14.324 43.8148 13.4691 43.8148 12.4721C43.8148 11.4751 43.9876 10.6287 44.3343 9.89767C44.6805 9.16724 45.1769 8.59771 45.8242 8.18969C46.4708 7.78167 47.2373 7.57766 48.1224 7.57766C48.951 7.57766 49.6828 7.77317 50.3191 8.16419C50.9548 8.55521 51.3855 9.14721 51.613 9.94018H53.3328C53.1965 9.15874 52.8869 8.47628 52.4051 7.89218C51.9227 7.30868 51.3155 6.85816 50.5831 6.54121C49.8507 6.22427 49.0361 6.06519 48.1395 6.06519C46.9477 6.06519 45.9008 6.3372 44.998 6.88062C44.0953 7.42404 43.3914 8.17512 42.8865 9.13203C42.3816 10.0895 42.1292 11.191 42.1292 12.4375C42.1292 13.684 42.3786 14.814 42.8786 15.7599C43.3781 16.7059 44.0703 17.4394 44.9561 17.9603C45.8412 18.4813 46.8626 18.7418 48.0208 18.7418C48.6906 18.7418 49.3062 18.6422 49.8683 18.4443C50.4298 18.2463 50.9098 17.9798 51.307 17.6452C51.6027 17.3969 51.8381 17.1243 52.0139 16.8286L52.1411 18.5548H53.469V11.7915H47.7994V11.9147V11.9153Z" fill="#EBFF6E"/>
<path d="M66.6553 17.0853C66.252 17.3403 65.7331 17.4678 65.0974 17.4678C64.2348 17.4678 63.5735 17.1958 63.1142 16.6524C62.7121 16.177 62.4858 15.5188 62.4353 14.6797L68.8946 14.6645V14.0864C68.8946 13.2595 68.7328 12.543 68.4098 11.9371C68.0861 11.3311 67.6323 10.8581 67.0477 10.5181C66.4631 10.1781 65.7793 10.0081 64.9958 10.0081C64.2123 10.0081 63.4999 10.1951 62.8928 10.5691C62.2857 10.9425 61.8088 11.4586 61.4626 12.1156C61.1165 12.7725 60.9431 13.5321 60.9431 14.3925C60.9431 15.2528 61.1189 16.01 61.4711 16.6609C61.8228 17.3124 62.3082 17.8224 62.9269 18.1903C63.5456 18.5583 64.2634 18.7429 65.0804 18.7429C66.1018 18.7429 66.9449 18.5024 67.6086 18.0203C68.2729 17.5388 68.7066 16.8564 68.911 15.9723H67.4468C67.3221 16.4593 67.058 16.8303 66.6553 17.0853ZM63.6161 11.6559C64.0018 11.4179 64.4617 11.2989 64.9952 11.2989C65.7106 11.2989 66.283 11.5114 66.715 11.9364C67.1463 12.3615 67.3622 12.9304 67.3622 13.6444H62.4712C62.5187 13.2886 62.602 12.9656 62.731 12.6845C62.9354 12.237 63.2304 11.8939 63.6161 11.6565V11.6559Z" fill="#EBFF6E"/>
<path d="M75.7986 10.3646C75.2821 10.1266 74.6835 10.0076 74.0022 10.0076C73.3208 10.0076 72.6766 10.1241 72.1376 10.3561C71.598 10.5886 71.1844 10.9202 70.8948 11.35C70.6052 11.7805 70.4605 12.2845 70.4605 12.8625H71.8055C71.8055 12.3415 71.9898 11.942 72.3591 11.6645C72.7277 11.3871 73.2527 11.248 73.934 11.248C74.3197 11.248 74.6634 11.3075 74.9639 11.4265C75.2644 11.5455 75.5029 11.7471 75.6787 12.0301C75.8545 12.3136 75.9427 12.6931 75.9427 13.1685V13.4065L73.3038 13.6105C72.3165 13.6901 71.553 13.9591 71.014 14.4175C70.4751 14.8759 70.2056 15.4855 70.2056 16.2445C70.2056 17.0034 70.455 17.5954 70.955 18.0545C71.4545 18.5135 72.1468 18.743 73.0325 18.743C73.7023 18.743 74.3008 18.6039 74.8289 18.3265C75.3569 18.049 75.7341 17.6665 75.961 17.1795L76.1313 18.539H77.4423V13.3221C77.4423 12.5741 77.2975 11.9542 77.0079 11.4611C76.7184 10.9681 76.3156 10.6032 75.7992 10.3652L75.7986 10.3646ZM75.9433 14.936C75.9433 15.729 75.7243 16.3635 75.2882 16.8395C74.8514 17.3155 74.2412 17.5535 73.4577 17.5535C72.9351 17.5535 72.5209 17.4376 72.2149 17.205C71.9083 16.9731 71.755 16.63 71.755 16.1771C71.755 15.7806 71.9107 15.4436 72.2234 15.1661C72.5355 14.8886 73.055 14.7217 73.7813 14.6646L75.9433 14.4946V14.9366V14.936Z" fill="#EBFF6E"/>
<path d="M89.0184 10.0076C88.2696 10.0076 87.6394 10.2061 87.1284 10.6026C86.7542 10.8934 86.4872 11.2577 86.3266 11.6943C86.1526 11.2577 85.8904 10.8934 85.5364 10.6026C85.0539 10.2061 84.4383 10.0076 83.6895 10.0076C83.0313 10.0076 82.4722 10.1636 82.0123 10.4751C81.6583 10.7149 81.3912 11.0039 81.2087 11.3409L81.0505 10.2456H79.6885V18.5384H81.2209V13.5765C81.2209 13.1461 81.306 12.7666 81.4764 12.4381C81.6467 12.1096 81.8852 11.8546 82.1918 11.6737C82.4984 11.4927 82.85 11.4016 83.2472 11.4016C83.8263 11.4016 84.2856 11.5802 84.6263 11.9372C84.967 12.2942 85.1367 12.8012 85.1367 13.4581V18.5396H86.652V13.5942C86.652 13.1521 86.7372 12.7672 86.9075 12.4387C87.0779 12.1102 87.3163 11.8552 87.6223 11.6743C87.9289 11.4933 88.2805 11.4022 88.6778 11.4022C89.2569 11.4022 89.7162 11.5838 90.0569 11.9463C90.3975 12.3088 90.5679 12.8188 90.5679 13.4758V18.5396H92.0832V13.1187C92.0832 12.1558 91.8107 11.3968 91.2662 10.8418C90.7212 10.2869 89.9723 10.0094 89.0184 10.0094V10.0076Z" fill="#EBFF6E"/>
<path d="M102.078 16.5077C101.408 16.9668 100.613 17.1963 99.6943 17.1963C98.8657 17.1963 98.1363 16.9983 97.5067 16.6012C96.8765 16.2048 96.3886 15.6437 96.0425 14.9188C95.6963 14.1938 95.523 13.3553 95.523 12.4038C95.523 11.4524 95.6957 10.5854 96.0425 9.87193C96.3886 9.1585 96.8765 8.60354 97.5067 8.20645C98.1363 7.80996 98.8657 7.61142 99.6943 7.61142C100.603 7.61142 101.382 7.84093 102.035 8.29995C102.688 8.75898 103.133 9.3959 103.372 10.2119H105.091C104.932 9.37344 104.607 8.64301 104.113 8.01944C103.619 7.39648 103 6.91499 102.257 6.57497C101.513 6.23495 100.682 6.06494 99.7624 6.06494C98.5932 6.06494 97.5633 6.33149 96.6721 6.86398C95.7809 7.39648 95.0856 8.13601 94.5861 9.08139C94.0867 10.0274 93.8367 11.1349 93.8367 12.4038C93.8367 13.6728 94.0806 14.7803 94.5685 15.7263C95.0564 16.6723 95.7377 17.4088 96.6119 17.9352C97.486 18.4622 98.502 18.7251 99.6596 18.7251C100.59 18.7251 101.436 18.5582 102.196 18.2236C102.957 17.8897 103.592 17.4167 104.103 16.8047C104.614 16.1926 104.961 15.4853 105.142 14.6808H103.439C103.201 15.4397 102.747 16.0487 102.077 16.5077H102.078Z" fill="#EBFF6E"/>
<path d="M114.438 12.1233C114.064 11.4718 113.553 10.9593 112.906 10.5853C112.259 10.2113 111.521 10.0249 110.692 10.0249C109.864 10.0249 109.123 10.2119 108.471 10.5853C107.818 10.9593 107.305 11.4718 106.93 12.1233C106.555 12.7748 106.368 13.5313 106.368 14.3923C106.368 15.2533 106.555 15.9783 106.93 16.6352C107.304 17.2922 107.818 17.8077 108.471 18.1817C109.123 18.5557 109.864 18.7421 110.692 18.7421C111.521 18.7421 112.259 18.5551 112.906 18.1817C113.553 17.8077 114.064 17.2922 114.438 16.6352C114.813 15.9783 115 15.2308 115 14.3923C115 13.5538 114.813 12.7754 114.438 12.1233ZM113.102 15.9297C112.869 16.3772 112.546 16.7281 112.132 16.9831C111.717 17.2381 111.238 17.3656 110.693 17.3656C110.148 17.3656 109.668 17.2381 109.254 16.9831C108.84 16.7281 108.513 16.3772 108.275 15.9297C108.037 15.4822 107.918 14.9643 107.918 14.3747C107.918 13.7851 108.037 13.2672 108.275 12.8197C108.514 12.3722 108.84 12.0237 109.254 11.7748C109.668 11.5258 110.148 11.4008 110.693 11.4008C111.238 11.4008 111.717 11.5258 112.132 11.7748C112.546 12.0243 112.87 12.3722 113.102 12.8197C113.334 13.2672 113.451 13.7857 113.451 14.3747C113.451 14.9637 113.335 15.4822 113.102 15.9297Z" fill="#EBFF6E"/>
<path d="M59.6657 10.0793C59.0111 10.1054 58.3937 10.2779 57.8504 10.5687C57.5925 10.7047 57.3528 10.8668 57.1296 11.0508V10.0757H55.5978V18.5385H57.1296V17.5615C57.1296 17.5615 57.1314 14.0399 57.1314 13.9962C57.1314 12.729 58.4381 11.5882 59.8372 11.5882H60.2959V10.1771C60.1371 10.1309 59.9917 10.1036 59.8628 10.0927C59.85 10.0915 59.6657 10.0799 59.6657 10.0799V10.0793Z" fill="#EBFF6E"/>
<path d="M35.1895 9.72205C34.8664 9.08816 34.4412 8.30612 33.6206 8.29519C32.3072 8.11365 31.0005 8.02136 29.7364 8.02136C25.2871 8.16465 21.5683 8.74511 17.7572 11.5843C14.1644 14.1544 14.4971 20.5632 19.1831 21.2632C21.2946 21.5711 23.3136 20.4211 25.3485 20.4958C28.4242 20.6494 31.0394 23.2153 32.9727 25.5742C32.0274 27.5214 30.6799 29.2737 29.038 30.6927C27.5348 29.0642 25.2372 26.2311 23.8782 22.8892C23.5862 22.1588 22.7704 21.7277 22.0228 21.9421C18.301 23.1704 25.7902 31.6131 26.494 32.4905C25.528 33.0406 24.5084 33.4863 23.4493 33.822C21.7898 32.0539 19.6217 29.2294 18.1355 25.3689C17.8587 24.6416 17.0363 24.1631 16.2558 24.2991C12.52 25.069 19.525 33.924 19.9405 34.51C18.7518 34.6065 17.4895 34.5689 16.3294 34.3946C15.103 32.9957 13.4265 30.8001 12.076 27.9895C11.5449 26.7825 9.65846 26.8523 9.23263 28.1037C8.83052 29.522 10.5503 31.4273 11.1957 32.7079C-6.16908 22.9749 5.79252 -2.86043 24.4111 3.88407C26.2014 4.57382 27.2824 1.89618 25.4945 1.17789C-3.63781 -7.65893 -10.3228 36.0801 18.7074 37.4742C32.5475 37.7717 42.1378 21.7472 35.1895 9.72205ZM18.1185 15.8041C18.312 14.6748 19.7561 13.4956 19.7561 13.4956C22.987 11.2473 27.6894 10.4646 31.8078 10.8635C32.0675 10.872 32.3705 10.8459 32.5791 11.0287C34.5282 14.5005 35.0569 18.7586 34.0586 22.6136C31.113 19.3786 28.1055 17.7404 25.1058 17.7404C24.1312 17.7538 23.108 17.8977 22.201 18.1842C17.8143 19.6378 18.0498 16.2103 18.1197 15.8041H18.1185Z" fill="#EBFF6E"/>
<path d="M46.5602 31.3157C43.8479 31.3157 42.0441 29.367 42.0441 26.4177C42.0441 23.4815 43.9006 21.4934 46.626 21.4934C48.7722 21.4934 50.418 22.7706 50.7735 24.7192H49.391C49.0355 23.4815 47.969 22.7311 46.5865 22.7311C44.6642 22.7311 43.4002 24.1794 43.4002 26.4045C43.4002 28.6297 44.6642 30.078 46.5865 30.078C47.9822 30.078 49.0882 29.3275 49.4437 28.1557H50.813C50.4049 30.0517 48.7064 31.3157 46.5602 31.3157Z" fill="white"/>
<path d="M53.5438 31.3288C52.1613 31.3288 51.3449 30.552 51.3449 29.3802C51.3449 28.1952 52.2271 27.4579 53.7413 27.3394L55.7689 27.1814V26.997C55.7689 25.9174 55.1238 25.5355 54.2548 25.5355C53.2146 25.5355 52.6221 25.9964 52.6221 26.7732H51.5424C51.5424 25.4302 52.6484 24.548 54.3074 24.548C55.9006 24.548 56.9802 25.3907 56.9802 27.1287V31.1708H55.9269L55.7953 30.1307C55.4661 30.868 54.5839 31.3288 53.5438 31.3288ZM53.8993 30.3677C55.0711 30.3677 55.7821 29.604 55.7821 28.3927V28.0504L54.1363 28.182C53.0434 28.2874 52.5958 28.7087 52.5958 29.3407C52.5958 30.0254 53.0961 30.3677 53.8993 30.3677Z" fill="white"/>
<path d="M60.0134 31.1708H58.7757V25.7725H57.5117V24.7324H58.7757V22.7179H60.0134V24.7324H61.2774V25.7725H60.0134V31.1708Z" fill="white"/>
<path d="M63.7988 31.3288C62.4163 31.3288 61.6 30.552 61.6 29.3802C61.6 28.1952 62.4821 27.4579 63.9963 27.3394L66.024 27.1814V26.997C66.024 25.9174 65.3788 25.5355 64.5098 25.5355C63.4696 25.5355 62.8771 25.9964 62.8771 26.7732H61.7975C61.7975 25.4302 62.9035 24.548 64.5625 24.548C66.1556 24.548 67.2353 25.3907 67.2353 27.1287V31.1708H66.182L66.0503 30.1307C65.7211 30.868 64.839 31.3288 63.7988 31.3288ZM64.1543 30.3677C65.3261 30.3677 66.0371 29.604 66.0371 28.3927V28.0504L64.3913 28.182C63.2985 28.2874 62.8508 28.7087 62.8508 29.3407C62.8508 30.0254 63.3511 30.3677 64.1543 30.3677Z" fill="white"/>
<path d="M69.8183 31.1708H68.5806V21.4802H69.8183V31.1708Z" fill="white"/>
<path d="M70.6264 34.0543V33.0405H71.4559C72.0484 33.0405 72.5224 32.9483 72.8252 32.132L73.0491 31.5132L70.4552 24.7324H71.7587L73.6284 29.92L75.5375 24.7324H76.8147L73.7732 32.6192C73.3387 33.7252 72.6936 34.186 71.7061 34.186C71.2979 34.186 70.9556 34.1333 70.6264 34.0543Z" fill="white"/>
<path d="M76.7911 29.3012H77.9761C77.9761 29.9595 78.4765 30.3545 79.2928 30.3545C80.1618 30.3545 80.6621 29.999 80.6621 29.4065C80.6621 28.972 80.4515 28.7087 79.78 28.5375L78.6476 28.2742C77.5021 27.9977 76.9623 27.4315 76.9623 26.4835C76.9623 25.2985 77.963 24.548 79.385 24.548C80.7938 24.548 81.7155 25.338 81.7418 26.5625H80.5568C80.5305 25.9174 80.096 25.5092 79.3455 25.5092C78.5686 25.5092 78.1341 25.8515 78.1341 26.444C78.1341 26.8785 78.4501 27.1682 79.0821 27.3262L80.2145 27.6027C81.3073 27.866 81.8471 28.3664 81.8471 29.3275C81.8471 30.552 80.7938 31.3288 79.2665 31.3288C77.7523 31.3288 76.7911 30.5257 76.7911 29.3012Z" fill="white"/>
<path d="M84.6416 31.1708H83.404V25.7725H82.14V24.7324H83.404V22.7179H84.6416V24.7324H85.9056V25.7725H84.6416V31.1708Z" fill="white"/>
</svg>
