<svg width="56" height="41" viewBox="0 0 56 41" fill="none" xmlns="http://www.w3.org/2000/svg">
<rect y="0.478271" width="56" height="40" rx="12" fill="#121212"/>
<path d="M35 11.4783C35.5304 11.4783 36.0391 11.689 36.4142 12.0641C36.7893 12.4391 37 12.9478 37 13.4783V27.4783C37 28.0087 36.7893 28.5174 36.4142 28.8925C36.0391 29.2676 35.5304 29.4783 35 29.4783H21C20.4696 29.4783 19.9609 29.2676 19.5858 28.8925C19.2107 28.5174 19 28.0087 19 27.4783V13.4783C19 12.9478 19.2107 12.4391 19.5858 12.0641C19.9609 11.689 20.4696 11.4783 21 11.4783H35ZM34.5 26.9783V21.6783C34.5 20.8137 34.1565 19.9845 33.5452 19.3731C32.9338 18.7617 32.1046 18.4183 31.24 18.4183C30.39 18.4183 29.4 18.9383 28.92 19.7183V18.6083H26.13V26.9783H28.92V22.0483C28.92 21.2783 29.54 20.6483 30.31 20.6483C30.6813 20.6483 31.0374 20.7958 31.2999 21.0583C31.5625 21.3209 31.71 21.677 31.71 22.0483V26.9783H34.5ZM22.88 17.0383C23.3256 17.0383 23.7529 16.8613 24.0679 16.5462C24.383 16.2312 24.56 15.8038 24.56 15.3583C24.56 14.4283 23.81 13.6683 22.88 13.6683C22.4318 13.6683 22.0019 13.8463 21.685 14.1633C21.3681 14.4802 21.19 14.9101 21.19 15.3583C21.19 16.2883 21.95 17.0383 22.88 17.0383ZM24.27 26.9783V18.6083H21.5V26.9783H24.27Z" fill="white"/>
</svg>
