<svg width="42" height="43" viewBox="0 0 42 43" fill="none" xmlns="http://www.w3.org/2000/svg">
<path d="M0.0234375 37.2961V42.8867H9.42795L11.4355 40.8792L3.93789 33.3816L0.0234375 37.2961Z" fill="#006837"/>
<path d="M34.0497 15.9926L34.5722 16.5151C34.8295 16.7724 35.2484 16.7724 35.5057 16.5151L37.525 14.4957L30.0275 6.99805L28.0081 9.0174C27.7507 9.27482 27.7507 9.69366 28.0081 9.95108L34.0487 15.9916C34.049 15.992 34.0493 15.9923 34.0497 15.9926Z" fill="#006837"/>
<path d="M28.0452 22.5463C28.1568 22.818 28.3252 22.9976 28.5602 23.0953C28.7017 23.1542 28.8621 23.145 29.0501 23.067C30.5495 22.4446 32.6163 18.1686 33.4004 16.3141L27.9813 10.895C27.0483 11.382 23.3357 13.3968 20.8743 15.8582C18.8543 17.8783 17.1397 20.7028 16.2976 22.2066C16.0532 22.6428 16.1292 23.1942 16.4823 23.5473C16.7093 23.7743 17.0239 23.8929 17.3438 23.8735C17.6635 23.8539 17.9597 23.6979 18.1565 23.4457C19.2318 22.0677 20.7689 20.2088 21.9857 19.1777C23.9901 17.4792 28.3563 16.9365 28.5412 16.9143C28.6629 16.8998 28.7827 16.9508 28.8564 17.0485C28.9301 17.1462 28.9462 17.2757 28.8988 17.3885C28.4807 18.3829 27.5124 21.2482 28.0452 22.5463Z" fill="#006837"/>
<path d="M13.9037 24.8449C13.7921 24.5732 13.6237 24.3935 13.3887 24.2958C13.247 24.2368 13.0867 24.2462 12.8988 24.3243C11.3987 24.947 9.33244 29.2227 8.54858 31.0771L13.9676 36.4962C14.9007 36.0093 18.6133 33.9944 21.0747 31.5331C23.0947 29.513 24.8093 26.6885 25.6514 25.1847C25.8958 24.7484 25.8198 24.1971 25.4667 23.844C25.2397 23.6169 24.9261 23.4981 24.6051 23.5177C24.2854 23.5374 23.9893 23.6933 23.7925 23.9455C22.7172 25.3234 21.18 27.1824 19.9633 28.2135C17.9588 29.912 13.5927 30.4547 13.4078 30.4769C13.2859 30.4909 13.1663 30.4403 13.0926 30.3427C13.0189 30.245 13.0028 30.1155 13.0502 30.0027C13.4682 29.0083 14.4365 26.1429 13.9037 24.8449Z" fill="#006837"/>
<path d="M7.90039 31.4C7.89979 31.3994 7.89919 31.3988 7.89859 31.3982L7.37645 30.876C7.11911 30.6188 6.70027 30.6188 6.44293 30.876L4.42358 32.8955L11.9211 40.3931L13.9405 38.3738C14.1979 38.1164 14.1979 37.6976 13.9405 37.4402L7.90039 31.4Z" fill="#006837"/>
<path d="M36.0409 0.984863L30.5133 6.51245L38.0109 14.0101L41.9253 10.0956V0.984863H36.0409Z" fill="#006837"/>
<path d="M35.9917 17.0006C35.729 17.2633 35.3841 17.3946 35.0392 17.3946C34.6943 17.3946 34.3493 17.2633 34.0867 17.0006L33.9234 16.8373C33.2453 18.4055 31.153 22.9375 29.3133 23.7013C28.9532 23.851 28.6109 23.8605 28.2963 23.7296C27.8896 23.5605 27.5913 23.25 27.4093 22.8067C26.8246 21.3811 27.6329 18.8156 28.0481 17.6817C26.8062 17.8864 23.8703 18.4807 22.4294 19.7016C21.2572 20.6948 19.7531 22.5155 18.6976 23.8681C18.3798 24.2754 17.9016 24.5272 17.3855 24.5589C17.3485 24.5611 17.3115 24.5623 17.2747 24.5623C16.7969 24.5623 16.336 24.3727 15.9961 24.0327C15.4266 23.4632 15.3039 22.5742 15.6977 21.8708C16.5573 20.3359 18.3095 17.4507 20.388 15.3723C22.8055 12.9548 26.2775 11.0159 27.4747 10.3835C26.9995 9.8553 27.0143 9.03968 27.5226 8.53145L29.8473 6.20677C24.6417 6.92236 21.2993 12.0682 21.2642 12.1232C21.2011 12.2221 21.0919 12.282 20.9746 12.282H20.9744C20.857 12.2819 20.7478 12.2221 20.6848 12.1231C20.6741 12.1064 19.5897 10.4227 17.7133 8.85593C15.2251 6.77836 12.5969 5.87731 9.90199 6.17955C7.04229 6.49982 4.56004 8.22389 3.09185 10.9096C1.32349 14.1446 1.31996 18.2058 3.08232 21.7732C4.07225 23.7772 6.02368 26.1068 8.8845 28.7017C9.84884 26.7555 11.3082 24.241 12.6361 23.6897C12.9964 23.5401 13.3385 23.5306 13.653 23.6615C14.0597 23.8305 14.3581 24.141 14.54 24.5843C15.1248 26.0099 14.3164 28.5755 13.9013 29.7093C15.1431 29.5046 18.0791 28.9103 19.52 27.6894C20.6921 26.6962 22.1963 24.8755 23.2517 23.523C23.5695 23.1157 24.0477 22.8639 24.5638 22.8321C25.0801 22.8002 25.5871 22.9921 25.9533 23.3584C26.5229 23.9279 26.6456 24.8169 26.2517 25.5203C25.3921 27.0552 23.6399 29.9404 21.5614 32.0188C20.2921 33.2879 18.7322 34.4253 17.3633 35.311C19.138 36.5336 20.5028 37.3939 20.9747 37.6871C22.651 36.6428 35.5745 28.4387 38.8671 21.7734C40.2327 19.0094 40.5517 15.9901 39.7838 13.2088L35.9917 17.0006Z" fill="#006837"/>
</svg>
