<svg width="154" height="51" viewBox="0 0 154 51" fill="none" xmlns="http://www.w3.org/2000/svg">
<path d="M64.0098 15.9567V19.6123H65.9233V17.7032H69.5729V18.2268C69.5729 19.0765 69.4393 19.8083 69.1737 20.423C68.9073 21.0377 68.5391 21.5418 68.0674 21.9361C67.5966 22.3313 67.0565 22.6191 66.4488 22.8012C65.8411 22.9834 65.1796 23.0744 64.4651 23.0744C63.3255 23.0744 62.3218 22.824 61.4559 22.3231C60.5899 21.8223 59.9089 21.0946 59.4152 20.1384C58.9207 19.1822 58.6739 18.0374 58.6739 16.7023C58.6739 15.3672 58.9053 14.2337 59.3696 13.2548C59.8331 12.2766 60.4979 11.514 61.3646 10.9676C62.2306 10.4212 63.257 10.148 64.4423 10.148C65.5519 10.148 66.5319 10.4098 67.384 10.9334C68.2353 11.4571 68.812 12.2498 69.1167 13.3117H71.4197C71.2372 12.2653 70.8225 11.3514 70.1773 10.5692C69.5313 9.78779 68.7183 9.18448 67.7375 8.76005C66.7567 8.33562 65.6659 8.12259 64.4651 8.12259C62.8693 8.12259 61.4673 8.48685 60.2584 9.21456C59.0495 9.94228 58.1069 10.9481 57.4308 12.2295C56.7546 13.5117 56.4166 14.9867 56.4166 16.6559C56.4166 18.3252 56.7506 19.8384 57.4202 21.1051C58.089 22.3719 59.0161 23.3541 60.2022 24.0518C61.3875 24.7494 62.7552 25.0982 64.3063 25.0982C65.2032 25.0982 66.0276 24.9649 66.7803 24.6998C67.5322 24.4347 68.175 24.0778 68.7069 23.6298C69.1028 23.2972 69.4181 22.9321 69.6535 22.5362L69.8238 24.8478H71.6021V15.7908H64.0098V15.9559V15.9567Z" fill="#1A3A28"/>
<path d="M89.2602 22.8802C88.7201 23.2217 88.0252 23.3924 87.1739 23.3924C86.0187 23.3924 85.1332 23.0281 84.5182 22.3004C83.9797 21.6638 83.6767 20.7824 83.6091 19.6587L92.2588 19.6384V18.8643C92.2588 17.7569 92.0422 16.7975 91.6096 15.986C91.1762 15.1745 90.5685 14.5412 89.7856 14.0858C89.0028 13.6305 88.0871 13.4028 87.0379 13.4028C85.9886 13.4028 85.0347 13.6533 84.2217 14.1541C83.4087 14.6542 82.77 15.3453 82.3065 16.2251C81.8429 17.1048 81.6108 18.122 81.6108 19.2741C81.6108 20.4263 81.8462 21.4402 82.3179 22.3118C82.7887 23.1843 83.4388 23.8673 84.2673 24.36C85.0958 24.8527 86.057 25.0999 87.1511 25.0999C88.5189 25.0999 89.6479 24.7779 90.5367 24.1323C91.4263 23.4875 92.0071 22.5736 92.2808 21.3898H90.32C90.153 22.0419 89.7995 22.5387 89.2602 22.8802ZM85.1903 15.6095C85.7067 15.2908 86.3226 15.1315 87.037 15.1315C87.9951 15.1315 88.7616 15.416 89.34 15.9852C89.9176 16.5544 90.2068 17.3162 90.2068 18.2724H83.6571C83.7207 17.7959 83.8323 17.3634 84.005 16.9869C84.2787 16.3877 84.6738 15.9283 85.1903 15.6104V15.6095Z" fill="#1A3A28"/>
<path d="M101.504 13.88C100.813 13.5613 100.011 13.4019 99.0987 13.4019C98.1864 13.4019 97.3237 13.558 96.6019 13.8686C95.8793 14.1801 95.3254 14.624 94.9376 15.1997C94.5498 15.7761 94.3559 16.451 94.3559 17.2251H96.1571C96.1571 16.5274 96.4039 15.9924 96.8984 15.6208C97.3921 15.2493 98.0951 15.0631 99.0075 15.0631C99.524 15.0631 99.9843 15.1427 100.387 15.3021C100.789 15.4615 101.108 15.7314 101.344 16.1103C101.579 16.49 101.697 16.9982 101.697 17.6349V17.9536L98.1635 18.2268C96.8414 18.3333 95.819 18.6935 95.0973 19.3074C94.3755 19.9213 94.0146 20.7376 94.0146 21.754C94.0146 22.7703 94.3486 23.5631 95.0182 24.1778C95.6871 24.7925 96.6141 25.0998 97.8002 25.0998C98.6971 25.0998 99.4987 24.9136 100.206 24.542C100.913 24.1704 101.418 23.6582 101.722 23.0061L101.95 24.8266H103.705V17.8406C103.705 16.8388 103.512 16.0087 103.124 15.3485C102.736 14.6882 102.197 14.1996 101.505 13.8808L101.504 13.88ZM101.698 20.0018C101.698 21.0636 101.405 21.9133 100.821 22.5508C100.236 23.1882 99.4189 23.507 98.3696 23.507C97.6699 23.507 97.1151 23.3517 96.7053 23.0403C96.2948 22.7297 96.0895 22.2703 96.0895 21.6637C96.0895 21.1328 96.298 20.6815 96.7168 20.3099C97.1347 19.9383 97.8304 19.7147 98.803 19.6383L101.698 19.4106V20.0026V20.0018Z" fill="#1A3A28"/>
<path d="M119.207 13.4019C118.204 13.4019 117.36 13.6678 116.676 14.1988C116.175 14.5882 115.818 15.0761 115.602 15.6607C115.369 15.0761 115.018 14.5882 114.544 14.1988C113.898 13.6678 113.074 13.4019 112.071 13.4019C111.19 13.4019 110.441 13.6109 109.825 14.028C109.351 14.3492 108.993 14.7362 108.749 15.1875L108.537 13.7207H106.713V24.8258H108.765V18.1813C108.765 17.6048 108.879 17.0966 109.107 16.6567C109.336 16.2168 109.655 15.8753 110.065 15.633C110.476 15.3907 110.947 15.2688 111.479 15.2688C112.254 15.2688 112.869 15.5078 113.326 15.9859C113.782 16.464 114.009 17.1429 114.009 18.0227V24.8274H116.038V18.2048C116.038 17.6129 116.152 17.0974 116.38 16.6575C116.609 16.2176 116.928 15.8762 117.338 15.6339C117.748 15.3916 118.219 15.2696 118.751 15.2696C119.527 15.2696 120.142 15.5127 120.598 15.9981C121.054 16.4835 121.282 17.1665 121.282 18.0463V24.8274H123.311V17.5682C123.311 16.2786 122.946 15.2623 122.217 14.5191C121.487 13.776 120.485 13.4044 119.207 13.4044V13.4019Z" fill="#1A3A28"/>
<path d="M136.695 22.1069C135.799 22.7216 134.735 23.0289 133.504 23.0289C132.394 23.0289 131.417 22.7638 130.574 22.2321C129.73 21.7011 129.077 20.9498 128.613 19.979C128.15 19.0082 127.918 17.8853 127.918 16.6112C127.918 15.3371 128.149 14.176 128.613 13.2206C129.077 12.2653 129.73 11.5221 130.574 10.9903C131.417 10.4594 132.394 10.1935 133.504 10.1935C134.72 10.1935 135.764 10.5009 136.638 11.1156C137.513 11.7303 138.109 12.5832 138.428 13.676H140.731C140.518 12.5531 140.082 11.575 139.42 10.7399C138.759 9.90569 137.93 9.26091 136.935 8.80558C135.939 8.35025 134.826 8.12259 133.595 8.12259C132.029 8.12259 130.65 8.47953 129.457 9.19261C128.263 9.90569 127.332 10.896 126.663 12.162C125.994 13.4288 125.66 14.9119 125.66 16.6112C125.66 18.3106 125.986 19.7936 126.64 21.0604C127.293 22.3272 128.205 23.3135 129.376 24.0184C130.547 24.7242 131.907 25.0763 133.457 25.0763C134.704 25.0763 135.836 24.8527 136.854 24.4046C137.873 23.9574 138.724 23.3241 139.408 22.5045C140.092 21.6849 140.556 20.7376 140.799 19.6603H138.519C138.199 20.6766 137.592 21.4922 136.695 22.1069H136.695Z" fill="#1A3A28"/>
<path d="M153.248 16.2356C152.746 15.3632 152.062 14.6769 151.196 14.1761C150.329 13.6752 149.341 13.4256 148.232 13.4256C147.122 13.4256 146.13 13.676 145.257 14.1761C144.382 14.6769 143.695 15.3632 143.193 16.2356C142.691 17.1081 142.44 18.1212 142.44 19.2741C142.44 20.4271 142.691 21.3979 143.193 22.2777C143.694 23.1574 144.382 23.8477 145.257 24.3486C146.131 24.8494 147.122 25.0991 148.232 25.0991C149.341 25.0991 150.329 24.8486 151.196 24.3486C152.062 23.8477 152.746 23.1574 153.248 22.2777C153.749 21.3979 154 20.397 154 19.2741C154 18.1512 153.749 17.1089 153.248 16.2356ZM151.458 21.3328C151.146 21.9321 150.714 22.4021 150.159 22.7436C149.604 23.085 148.962 23.2558 148.232 23.2558C147.502 23.2558 146.861 23.085 146.306 22.7436C145.751 22.4021 145.314 21.9321 144.995 21.3328C144.676 20.7336 144.516 20.04 144.516 19.2505C144.516 18.461 144.676 17.7675 144.995 17.1682C145.314 16.569 145.751 16.1023 146.306 15.7689C146.861 15.4355 147.502 15.268 148.232 15.268C148.962 15.268 149.604 15.4355 150.159 15.7689C150.714 16.1031 151.147 16.569 151.458 17.1682C151.77 17.7675 151.926 18.4618 151.926 19.2505C151.926 20.0392 151.77 20.7336 151.458 21.3328Z" fill="#1A3A28"/>
<path d="M79.9004 13.4987C79.0238 13.5336 78.1969 13.7645 77.4695 14.154C77.1241 14.3361 76.8031 14.5532 76.5041 14.7996V13.4938H74.4529V24.8266H76.5041V23.5183C76.5041 23.5183 76.5066 18.8024 76.5066 18.7439C76.5066 17.047 78.2564 15.5192 80.1301 15.5192H80.7443V13.6296C80.5317 13.5678 80.337 13.5312 80.1643 13.5166C80.1472 13.5149 79.9004 13.4995 79.9004 13.4995V13.4987Z" fill="#1A3A28"/>
<path d="M47.1233 13.0191C46.6907 12.1702 46.1213 11.123 45.0224 11.1083C43.2636 10.8652 41.5137 10.7416 39.8209 10.7416C33.8627 10.9335 28.8828 11.7108 23.7792 15.5128C18.9679 18.9546 19.4135 27.5368 25.6887 28.4742C28.5162 28.8865 31.22 27.3465 33.945 27.4465C38.0638 27.6522 41.5659 31.0883 44.1548 34.2472C42.8888 36.8547 41.0844 39.2013 38.8857 41.1015C36.8728 38.9208 33.7959 35.1269 31.976 30.6517C31.585 29.6735 30.4925 29.0963 29.4914 29.3833C24.5074 31.0282 34.5364 42.3341 35.4789 43.509C34.1853 44.2457 32.82 44.8425 31.4017 45.2921C29.1794 42.9244 26.276 39.1419 24.2859 33.9723C23.9152 32.9983 22.8138 32.3575 21.7686 32.5397C16.766 33.5707 26.1465 45.4287 26.7029 46.2134C25.1111 46.3426 23.4207 46.2922 21.8672 46.0589C20.2249 44.1855 17.9798 41.2454 16.1713 37.4816C15.4601 35.8652 12.9339 35.9587 12.3637 37.6345C11.8252 39.5338 14.1282 42.0853 14.9925 43.8001C-8.2612 30.7663 7.75694 -3.83049 32.6896 5.20127C35.0871 6.12494 36.5347 2.53923 34.1405 1.57735C-4.87151 -10.2563 -13.8235 48.316 25.0516 50.1828C43.5853 50.5813 56.428 29.1223 47.1233 13.0191ZM24.263 21.1638C24.5221 19.6514 26.456 18.0724 26.456 18.0724C30.7826 15.0616 37.0797 14.0135 42.5947 14.5477C42.9426 14.5591 43.3483 14.5241 43.6277 14.7689C46.2378 19.4181 46.9457 25.1203 45.6089 30.2826C41.6644 25.9504 37.6369 23.7567 33.6199 23.7567C32.3149 23.7746 30.9447 23.9673 29.7301 24.3511C23.8557 26.2976 24.171 21.7077 24.2647 21.1638H24.263Z" fill="#006837"/>
<path d="M62.3502 41.9366C58.718 41.9366 56.3025 39.3271 56.3025 35.3776C56.3025 31.4457 58.7886 28.7833 62.4383 28.7833C65.3123 28.7833 67.5163 30.4936 67.9924 33.1031H66.141C65.665 31.4457 64.2368 30.4407 62.3854 30.4407C59.8112 30.4407 58.1185 32.3802 58.1185 35.36C58.1185 38.3397 59.8112 40.2792 62.3854 40.2792C64.2544 40.2792 65.7355 39.2742 66.2115 37.705H68.0453C67.4987 40.244 65.2242 41.9366 62.3502 41.9366Z" fill="#006837"/>
<path d="M71.7021 41.9543C69.8507 41.9543 68.7575 40.914 68.7575 39.3448C68.7575 37.7579 69.9389 36.7705 71.9665 36.6118L74.6818 36.4002V36.1534C74.6818 34.7076 73.8179 34.1963 72.6542 34.1963C71.2613 34.1963 70.4678 34.8134 70.4678 35.8537H69.022C69.022 34.0552 70.5031 32.8739 72.7247 32.8739C74.8582 32.8739 76.304 34.0023 76.304 36.3297V41.7427H74.8934L74.7171 40.3498C74.2763 41.3371 73.095 41.9543 71.7021 41.9543ZM72.1781 40.6671C73.7474 40.6671 74.6995 39.6445 74.6995 38.0224V37.5639L72.4955 37.7403C71.0321 37.8813 70.4326 38.4455 70.4326 39.2919C70.4326 40.2087 71.1026 40.6671 72.1781 40.6671Z" fill="#006837"/>
<path d="M80.3658 41.7427H78.7084V34.5136H77.0157V33.1207H78.7084V30.4231H80.3658V33.1207H82.0584V34.5136H80.3658V41.7427Z" fill="#006837"/>
<path d="M85.4349 41.9543C83.5836 41.9543 82.4904 40.914 82.4904 39.3448C82.4904 37.7579 83.6717 36.7705 85.6994 36.6118L88.4147 36.4002V36.1534C88.4147 34.7076 87.5507 34.1963 86.387 34.1963C84.9941 34.1963 84.2007 34.8134 84.2007 35.8537H82.7549C82.7549 34.0552 84.2359 32.8739 86.4575 32.8739C88.591 32.8739 90.0368 34.0023 90.0368 36.3297V41.7427H88.6263L88.4499 40.3498C88.0091 41.3371 86.8278 41.9543 85.4349 41.9543ZM85.911 40.6671C87.4802 40.6671 88.4323 39.6445 88.4323 38.0224V37.5639L86.2283 37.7403C84.7649 37.8813 84.1654 38.4455 84.1654 39.2919C84.1654 40.2087 84.8354 40.6671 85.911 40.6671Z" fill="#006837"/>
<path d="M93.4958 41.7427H91.8384V28.7657H93.4958V41.7427Z" fill="#006837"/>
<path d="M94.5779 45.604V44.2464H95.6888C96.4822 44.2464 97.1169 44.123 97.5225 43.0298L97.8222 42.2011L94.3487 33.1207H96.0943L98.598 40.0677L101.155 33.1207H102.865L98.792 43.6822C98.2101 45.1632 97.3461 45.7804 96.0238 45.7804C95.4772 45.7804 95.0187 45.7098 94.5779 45.604Z" fill="#006837"/>
<path d="M102.833 39.239H104.42C104.42 40.1206 105.09 40.6495 106.183 40.6495C107.347 40.6495 108.017 40.1734 108.017 39.38C108.017 38.7982 107.735 38.4455 106.836 38.2163L105.319 37.8637C103.785 37.4934 103.063 36.7352 103.063 35.4658C103.063 33.8789 104.403 32.8739 106.307 32.8739C108.193 32.8739 109.428 33.9318 109.463 35.5715H107.876C107.841 34.7076 107.259 34.161 106.254 34.161C105.214 34.161 104.632 34.6194 104.632 35.4129C104.632 35.9947 105.055 36.3826 105.901 36.5942L107.418 36.9645C108.881 37.3171 109.604 37.9871 109.604 39.2742C109.604 40.914 108.193 41.9543 106.148 41.9543C104.12 41.9543 102.833 40.8787 102.833 39.239Z" fill="#006837"/>
<path d="M113.346 41.7427H111.689V34.5136H109.996V33.1207H111.689V30.4231H113.346V33.1207H115.039V34.5136H113.346V41.7427Z" fill="#006837"/>
</svg>
