<svg width="48" height="48" viewBox="0 0 48 48" fill="none" xmlns="http://www.w3.org/2000/svg">
<path d="M31.1592 6.25159C30.8586 6.25159 30.6142 6.00713 30.6142 5.70651C30.6142 5.40591 30.8586 5.16143 31.1592 5.16143H37.5117C37.9644 5.16143 38.3773 5.34795 38.6761 5.64676H38.6779C38.9767 5.94555 39.1632 6.35845 39.1632 6.81294V22.2905C39.1632 22.5911 38.9188 22.8356 38.6181 22.8356C38.3175 22.8356 38.0731 22.5912 38.0731 22.2905V6.81294C38.0731 6.65902 38.0097 6.51958 37.9083 6.41818L37.9101 6.41636C37.8087 6.31496 37.6674 6.25157 37.5135 6.25157L31.1592 6.25159ZM42.7868 35.1383L40.4924 36.5508C40.3458 36.6413 40.1846 36.6667 40.0162 36.6232C39.8478 36.5797 39.7192 36.482 39.6323 36.3317L34.4077 27.2631C34.2411 26.9733 34.3353 26.6039 34.6196 26.4283L43.022 21.2603C43.2176 21.1389 43.4476 21.1353 43.6468 21.2476C43.8478 21.3598 43.9637 21.5572 43.9637 21.7872V33.0328C43.9637 33.9165 43.54 34.6753 42.7866 35.1388L42.7868 35.1383ZM12.692 37.6898C12.2502 37.8437 11.3357 39.0842 11.3103 39.5858C11.2668 40.4296 12.1397 41.2934 13.027 40.9892C13.3493 40.8787 14.5119 39.468 14.5409 38.9483C14.5898 38.0447 13.6083 37.1863 12.6938 37.6898H12.692ZM20.3648 43.6329L19.1895 45.3062C18.4869 46.7712 20.0225 47.5408 20.9659 46.9776C21.1869 46.8454 22.449 45.1866 22.5721 44.8553C23.0049 43.6819 21.301 42.3037 20.3648 43.6329ZM18.5992 40.654C18.112 40.9166 16.7937 42.9538 16.4334 43.45C15.3849 44.8896 17.1523 46.0069 18.0703 45.3496C18.3691 45.1794 19.6766 43.2906 20.0297 42.8071C21.0293 41.4363 19.6005 40.1144 18.5992 40.654ZM16.5474 38.0102C16.0621 38.2184 14.1806 40.8134 13.6591 41.5903C12.712 43.0028 14.3381 44.3428 15.4663 43.4663C15.8665 43.1531 17.1848 41.1104 17.5524 40.6251C17.8983 40.167 18.4706 39.6472 18.15 38.8341C17.9454 38.3126 17.2229 37.7223 16.5474 38.012V38.0102ZM36.2353 37.3564C36.7315 36.9327 37.4612 36.2536 37.894 35.8172C38.0914 35.618 38.1312 35.3246 37.9954 35.0802L34.7866 29.3341C34.5312 28.9013 34.1147 28.2313 33.8395 27.6953C33.7109 27.4454 33.4429 27.3168 33.1676 27.3729C29.0697 28.1987 26.8694 24.5806 22.1738 26.013C21.0384 26.3588 17.9092 30.4405 17.1416 32.123C17.0221 32.3855 17.0964 32.688 17.3245 32.8654C20.307 35.196 20.8376 28.1337 25.0802 30.4262C29.0044 32.5449 31.9816 34.6292 35.451 37.3707C35.6846 37.5554 36.0089 37.5502 36.2353 37.3564ZM19.4847 39.8319C20.4263 40.0492 21.0366 40.779 21.1217 41.8166C21.1452 42.0954 21.3426 42.3181 21.6179 42.3725C22.8438 42.6115 23.5519 43.7107 23.3509 44.8498C23.3273 44.9856 23.3038 45.0797 23.2784 45.1504C23.1716 45.4582 23.3201 45.7932 23.6189 45.9218C24.3595 46.2387 25.303 46.6588 25.8354 46.8761C26.9853 47.3451 28.7671 45.8983 27.2714 45.0653L24.8811 43.9009C24.26 43.7289 24.2907 42.9484 25.0748 43.1241C25.4117 43.1983 25.7666 43.4518 26.0871 43.613C26.9382 44.0458 27.6607 44.4696 28.376 44.8227C30.1072 45.6756 31.5813 43.7886 30.2304 43.0045C29.6038 42.6406 28.7961 42.1951 28.3489 41.9379C27.9197 41.6935 27.4724 41.4436 27.0451 41.1846C26.6249 40.9293 25.8535 40.7029 26.1903 40.1687C26.5308 39.8029 27.4362 40.5526 28.1569 40.9582C28.7636 41.2987 30.4295 42.1733 31.0525 42.5319C32.7656 43.5858 34.3791 42.1643 32.8181 40.75C32.599 40.5091 28.1786 37.8634 27.6607 37.628C27.0595 37.1445 27.697 36.6121 28.1352 36.9001L34.5382 41.132C36.0285 41.7369 37.4355 39.9803 36.2603 38.8612C33.0188 36.3713 29.6742 33.7456 25.94 31.73C25.3008 31.366 24.2396 30.7575 23.8811 30.6489C22.4813 30.2215 20.8515 32.8708 19.9642 33.6006C18.6513 34.3141 16.9871 33.8994 16.4457 33.0175C15.9078 32.1429 17.1519 30.5439 18.0338 29.3849C18.1696 29.2075 18.1986 28.9865 18.1153 28.7801C18.032 28.5718 17.8582 28.4342 17.6373 28.3998C17.2769 28.3437 16.9129 28.2875 16.5507 28.197C16.0002 28.0612 15.6978 27.8584 15.3863 27.67C15.2415 27.5813 15.0839 27.5578 14.9173 27.5976C14.7507 27.6393 14.624 27.7334 14.5352 27.8783C13.6171 29.3994 11.062 33.9628 10.3395 35.386C10.2199 35.6232 10.2598 35.8967 10.4409 36.0904C10.803 36.4725 11.1018 36.8781 11.4169 37.2874C11.5147 37.4141 11.6922 37.4449 11.828 37.358C12.9634 36.6337 14.3469 36.6409 15.1166 37.9339C15.1727 38.0262 15.2632 38.0805 15.3719 38.0842C15.4805 38.0878 15.5747 38.0407 15.6363 37.9502L15.8264 37.6731C16.913 36.5522 18.952 37.4848 19.0027 39.254C19.0117 39.5383 19.2037 39.7737 19.4807 39.8389L19.4847 39.8319ZM4.40206 33.262V22.0164C4.40206 21.7864 4.51796 21.5891 4.71896 21.4768C4.91997 21.3645 5.14814 21.3699 5.34373 21.4894L13.7443 26.6575C14.0286 26.8331 14.1228 27.2025 13.9562 27.4923L8.7316 36.5609C8.64468 36.7112 8.51611 36.8089 8.3477 36.8524C8.17929 36.8941 8.01993 36.8705 7.87146 36.78L5.5771 35.3675C4.82378 34.9039 4.40002 34.1452 4.40002 33.2614L4.40206 33.262ZM10.2928 22.518C10.2928 22.8186 10.0483 23.0631 9.74772 23.0631C9.4471 23.0631 9.20264 22.8186 9.20264 22.518V6.80678C9.20264 6.35406 9.38915 5.94118 9.68796 5.64059L9.68615 5.63878C9.98494 5.33999 10.3978 5.15346 10.8523 5.15346H17.3499C17.6505 5.15346 17.895 5.39792 17.895 5.69854C17.895 5.99914 17.6505 6.24362 17.3499 6.24362H10.8523C10.6984 6.24362 10.559 6.307 10.4558 6.4084H10.4539C10.3525 6.508 10.291 6.64925 10.291 6.80317V22.5144L10.2928 22.518ZM17.52 11.4607C17.6866 11.2108 18.0234 11.142 18.2734 11.3068C18.5232 11.4734 18.5921 11.8102 18.4273 12.0619L16.3375 15.2055L16.0949 15.5496C15.9663 15.7343 15.7744 15.8484 15.5697 15.8864C15.3651 15.9226 15.1442 15.8828 14.9613 15.7542L13.0055 14.4033C12.7574 14.2331 12.6959 13.8944 12.8661 13.6463C13.0363 13.3983 13.375 13.3367 13.623 13.5087L15.3597 14.7075C16.0985 13.6518 16.8065 12.5363 17.5218 11.4588L17.52 11.4607ZM23.2045 21.7174C22.9039 21.7174 22.6594 21.4729 22.6594 21.1723C22.6594 20.8717 22.9039 20.6273 23.2045 20.6273H35.0383C35.3389 20.6273 35.5834 20.8717 35.5834 21.1723C35.5834 21.4729 35.3389 21.7174 35.0383 21.7174H23.2045ZM17.52 19.0736C17.6866 18.8237 18.0234 18.7549 18.2734 18.9196C18.5232 19.0862 18.5921 19.423 18.4273 19.6748L16.3375 22.8203L16.0949 23.1643C15.9663 23.349 15.7744 23.4631 15.5697 23.5011C15.3651 23.5374 15.1442 23.4975 14.9613 23.369L13.0055 22.018C12.7574 21.8478 12.6959 21.5092 12.8661 21.2611C13.0363 21.013 13.375 20.9514 13.623 21.1217L15.3597 22.3204C16.0985 21.2647 16.8065 20.1474 17.5218 19.0717L17.52 19.0736ZM23.2045 14.1044C22.9039 14.1044 22.6594 13.86 22.6594 13.5594C22.6594 13.2587 22.9039 13.0143 23.2045 13.0143H35.0531C35.3538 13.0143 35.5982 13.2587 35.5982 13.5594C35.5982 13.86 35.3538 14.1044 35.0531 14.1044H23.2045ZM21.1238 2.85516L21.9296 2.73202V2.55094C21.9296 2.07104 22.127 1.63282 22.4439 1.31591V1.3141C22.7608 0.997202 23.199 0.799805 23.6808 0.799805H24.8307C25.3106 0.799805 25.7488 0.997188 26.0657 1.3141L26.0675 1.31591C26.3844 1.63281 26.58 2.06923 26.58 2.55094V2.73202L27.3858 2.85516C27.8349 2.92398 28.2134 3.07971 28.5267 3.34952C28.8363 3.61753 29.0627 3.98333 29.2057 4.47408L29.6331 5.92097C29.9971 5.92278 30.4643 6.02781 30.7449 6.57471C30.8554 6.79201 30.9097 7.0238 30.9097 7.24653C30.9097 7.46202 30.8608 7.6739 30.763 7.86041C30.658 8.06503 30.4969 8.23525 30.2831 8.34392C30.1292 8.42179 29.9572 8.46706 29.767 8.46706H18.7445C18.5561 8.46706 18.3823 8.42179 18.2284 8.34392C18.0147 8.23527 17.8535 8.06505 17.7467 7.86041C17.6507 7.6757 17.6018 7.46201 17.6018 7.24834C17.6018 7.02741 17.6561 6.79381 17.7666 6.57652C18.0473 6.02963 18.5145 5.92463 18.8784 5.92277L19.3058 4.47589C19.4507 3.98514 19.677 3.61933 19.9848 3.35133C20.2981 3.0797 20.6766 2.92397 21.1257 2.85697L21.1238 2.85516ZM22.5562 3.73884L21.2849 3.9326C21.0368 3.97063 20.8394 4.04669 20.6928 4.17164C20.5443 4.30021 20.4284 4.4994 20.3451 4.78189C20.164 5.39758 19.963 6.02596 19.7964 6.64526C19.6624 7.09073 19.4433 7.07081 19.101 7.02916C18.9996 7.01649 18.7715 6.98932 18.7316 7.069C18.7044 7.12333 18.69 7.1849 18.69 7.24647C18.69 7.29355 18.6972 7.33339 18.7117 7.36055L18.7207 7.37684C22.4077 7.37684 26.1 7.35874 29.7869 7.37684L29.796 7.36055C29.8104 7.33338 29.8177 7.29173 29.8177 7.24647C29.8177 7.1849 29.805 7.12333 29.776 7.069C29.7362 6.98932 29.508 7.01649 29.4066 7.02916C29.0644 7.069 28.8453 7.09254 28.7112 6.64526C28.7112 6.52393 28.235 5.02634 28.1625 4.78189C28.0792 4.4994 27.9634 4.30199 27.8149 4.17164C27.67 4.04487 27.4708 3.97063 27.2227 3.9326L25.9732 3.74246C25.6998 3.71168 25.4879 3.4817 25.4879 3.201V2.55273C25.4879 2.37164 25.4137 2.20504 25.2942 2.08553C25.1746 1.96601 25.0098 1.89358 24.8288 1.89358H23.6789C23.4978 1.89358 23.333 1.96782 23.2135 2.08734L23.2116 2.08553C23.0921 2.20505 23.0197 2.36984 23.0197 2.55273V3.201C23.0197 3.4672 22.8259 3.69898 22.5543 3.74065L22.5562 3.73884Z" fill="#006837"/>
</svg>
