<svg width="48" height="48" viewBox="0 0 48 48" fill="none" xmlns="http://www.w3.org/2000/svg">
<path d="M24.0272 9.77489C26.0982 9.76116 27.766 8.07113 27.7522 6.0001C27.7385 3.92908 26.0485 2.26132 23.9775 2.27506C21.9064 2.28879 20.2387 3.97882 20.2524 6.04984C20.2661 8.12087 21.9562 9.78863 24.0272 9.77489Z" fill="#006837"/>
<path d="M9 6.02686L6 2.27686L3 6.02686H4.5C4.47372 6.27617 4.47372 6.52755 4.5 6.77686C4.5 7.77142 4.89509 8.72524 5.59835 9.42851C6.30161 10.1318 7.25544 10.5269 8.25 10.5269C8.76559 10.5263 9.27577 10.4217 9.75 10.2194C9.08038 9.92711 8.51072 9.44562 8.111 8.83405C7.71128 8.22248 7.49892 7.50747 7.5 6.77686C7.49691 6.52443 7.52461 6.27257 7.5825 6.02686H9Z" fill="#006837"/>
<path d="M42 2.27686L39 6.02686H40.4175C40.4754 6.27257 40.5031 6.52443 40.5 6.77686C40.5011 7.50747 40.2887 8.22248 39.889 8.83405C39.4893 9.44562 38.9196 9.92711 38.25 10.2194C38.7242 10.4217 39.2344 10.5263 39.75 10.5269C40.2425 10.5269 40.7301 10.4299 41.1851 10.2414C41.64 10.0529 42.0534 9.77673 42.4017 9.42851C42.7499 9.08029 43.0261 8.66689 43.2145 8.21192C43.403 7.75695 43.5 7.26931 43.5 6.77686C43.5263 6.52755 43.5263 6.27617 43.5 6.02686H45L42 2.27686Z" fill="#006837"/>
<path d="M44.25 22.1519C44.25 20.0294 41.9175 18.1544 37.6725 16.8269L38.55 16.0769C38.6895 15.9375 38.8001 15.7721 38.8756 15.59C38.9511 15.4079 38.9899 15.2127 38.9899 15.0156C38.9899 14.8185 38.9511 14.6233 38.8756 14.4412C38.8001 14.2591 38.6895 14.0937 38.55 13.9544C38.2554 13.672 37.8631 13.5143 37.455 13.5143C37.0469 13.5143 36.6546 13.672 36.36 13.9544L31.725 17.2769C31.5264 15.8261 30.8856 14.4718 29.8898 13.3982C28.8941 12.3246 27.5917 11.5839 26.16 11.2769L24 17.2769L21.84 11.2769C20.4083 11.5839 19.1059 12.3246 18.1102 13.3982C17.1144 14.4718 16.4736 15.8261 16.275 17.2769L11.64 13.9694C11.3454 13.687 10.9531 13.5293 10.545 13.5293C10.1369 13.5293 9.74461 13.687 9.45 13.9694C9.31054 14.1087 9.1999 14.2741 9.12441 14.4562C9.04892 14.6383 9.01007 14.8335 9.01007 15.0306C9.01007 15.2277 9.04892 15.4229 9.12441 15.605C9.1999 15.7871 9.31054 15.9525 9.45 16.0919L10.3275 16.8419C6.0825 18.1544 3.75 20.0294 3.75 22.1519C3.75 23.7044 4.98 25.1069 7.305 26.2769C4.98 27.4469 3.75 28.8494 3.75 30.4019C3.75 31.9544 4.98 33.3569 7.305 34.5269C4.98 35.6969 3.75 37.0994 3.75 38.6519C3.75 42.6944 11.8425 45.0719 19.8525 45.6344L20.6025 45.6794H20.9475C21.9 45.7319 22.8975 45.7544 24 45.7544C25.1025 45.7544 26.1 45.7544 27.0675 45.6794H27.3975L28.1475 45.6344C36.1575 45.0719 44.25 42.6944 44.25 38.6519C44.25 37.0994 43.02 35.6969 40.695 34.5269C43.02 33.3569 44.25 31.9544 44.25 30.4019C44.25 28.8494 43.02 27.4469 40.695 26.2769C43.02 25.1069 44.25 23.7044 44.25 22.1519ZM18.75 27.5369C16.3148 27.3323 13.9027 26.9106 11.5425 26.2769C13.9027 25.6431 16.3148 25.2214 18.75 25.0169V27.5369ZM18.75 35.7869C16.3148 35.5823 13.9027 35.1606 11.5425 34.5269C13.9027 33.8931 16.3148 33.4714 18.75 33.2669V35.7869ZM22.455 33.0269C23.46 33.0269 24.495 33.0269 25.5 33.0269V36.0269C24.495 36.0269 23.4675 36.0269 22.4475 36.0269L22.455 33.0269ZM29.25 33.2444C31.6859 33.4563 34.098 33.8855 36.4575 34.5269C34.0981 35.1643 31.6857 35.586 29.25 35.7869V33.2444ZM25.545 29.6519V31.5269C24.525 31.5269 23.475 31.5269 22.455 31.5269V29.6519C22.4597 29.5258 22.4748 29.4004 22.5 29.2769H22.7625H24H25.245H25.5C25.5252 29.4004 25.5403 29.5258 25.545 29.6519ZM29.25 25.0169C31.6852 25.2214 34.0973 25.6431 36.4575 26.2769C34.0973 26.9106 31.6852 27.3323 29.25 27.5369V25.0169ZM5.25 22.1519C5.25 20.7419 7.5375 19.1969 11.25 18.1169C11.3904 18.0731 11.5137 17.9866 11.6025 17.8694L16.275 21.7769L18.75 20.2769V23.5169H18.6825C15.4391 23.7626 12.2405 24.423 9.165 25.4819C6.675 24.4769 5.25 23.2769 5.25 22.1519ZM5.25 30.4019C5.25 29.2769 6.675 28.0769 9.165 27.0794C12.2407 28.1375 15.4392 28.7978 18.6825 29.0444H18.75V31.7669H18.6825C15.4391 32.0126 12.2405 32.673 9.165 33.7319C6.675 32.7269 5.25 31.5269 5.25 30.4019ZM5.25 38.6519C5.25 37.5269 6.675 36.3269 9.165 35.3294C12.2407 36.3875 15.4392 37.0478 18.6825 37.2944H18.75V42.7769C18.7534 43.2297 18.8666 43.6749 19.08 44.0744C10.41 43.3169 5.25 40.7744 5.25 38.6519ZM22.0725 44.2769C22.32 43.9569 22.4545 43.5639 22.455 43.1594V37.5269C22.965 37.5269 23.4825 37.5269 24 37.5269C24.5175 37.5269 25.035 37.5269 25.545 37.5269V43.1519C25.5438 43.559 25.6784 43.9548 25.9275 44.2769C25.3125 44.2769 24.6825 44.2769 24 44.2769C23.3175 44.2769 22.6875 44.2769 22.0725 44.2769ZM42.75 38.6519C42.75 40.7669 37.5975 43.3094 28.92 44.0594C29.13 43.664 29.2431 43.2245 29.25 42.7769V37.2944H29.3175C32.5609 37.0486 35.7595 36.3883 38.835 35.3294C41.325 36.3269 42.75 37.5269 42.75 38.6519ZM42.75 30.4019C42.75 31.5269 41.325 32.7269 38.835 33.7244C35.7593 32.6663 32.5608 32.0059 29.3175 31.7594H29.25V29.0444H29.3175C32.5609 28.7986 35.7595 28.1383 38.835 27.0794C41.325 28.0769 42.75 29.2769 42.75 30.4019ZM38.835 25.4744C35.7593 24.4163 32.5608 23.7559 29.3175 23.5094H29.25V20.2769L31.725 21.7769L36.42 17.8694C36.5088 17.9866 36.6321 18.0731 36.7725 18.1169C40.4625 19.1969 42.7725 20.7419 42.7725 22.1519C42.75 23.2769 41.325 24.4769 38.835 25.4744Z" fill="#006837"/>
</svg>
