<svg width="45" height="45" viewBox="0 0 45 45" fill="none" xmlns="http://www.w3.org/2000/svg">
<path d="M42.2176 11.6732C41.8301 10.9121 41.3199 9.97312 40.3354 9.96C38.7597 9.74202 37.192 9.63121 35.6754 9.63121C30.3375 9.80326 25.876 10.5002 21.3037 13.9092C16.9933 16.9952 17.3925 24.6901 23.0144 25.5307C25.5476 25.9003 27.9699 24.5195 30.4112 24.6092C34.1012 24.7936 37.2387 27.8745 39.5581 30.7068C38.424 33.0448 36.8074 35.1488 34.8376 36.8525C33.0342 34.8973 30.2776 31.4956 28.6472 27.483C28.2969 26.606 27.3182 26.0884 26.4212 26.3457C21.9561 27.8206 30.941 37.9577 31.7855 39.0112C30.6265 39.6717 29.4033 40.2068 28.1327 40.61C26.1417 38.487 23.5406 35.0956 21.7576 30.4604C21.4256 29.587 20.4388 29.0125 19.5025 29.1758C15.0206 30.1002 23.4245 40.7324 23.923 41.436C22.4969 41.5519 20.9825 41.5067 19.5908 41.2974C18.1194 39.6178 16.108 36.9816 14.4878 33.6069C13.8507 32.1576 11.5875 32.2414 11.0766 33.7439C10.5942 35.447 12.6574 37.7347 13.4317 39.2722C-7.40118 27.5858 6.94942 -3.43451 29.2865 4.66358C31.4344 5.49176 32.7313 2.27673 30.5863 1.41429C-4.36437 -9.19605 -12.3844 43.3212 22.4437 44.9951C39.048 45.3523 50.5537 26.1117 42.2176 11.6732ZM21.7372 18.9759C21.9693 17.6199 23.7019 16.2042 23.7019 16.2042C27.578 13.5046 33.2196 12.5648 38.1605 13.0438C38.4721 13.054 38.8356 13.0227 39.0859 13.2421C41.4243 17.4107 42.0585 22.5234 40.8609 27.152C37.327 23.2678 33.7188 21.3008 30.12 21.3008C28.9508 21.3169 27.7232 21.4896 26.6351 21.8337C21.3723 23.579 21.6547 19.4637 21.7386 18.9759H21.7372Z" fill="#006837"/>
</svg>
